<svg width="19" height="21" viewBox="0 0 19 21" fill="none" xmlns="http://www.w3.org/2000/svg">
<path d="M14.5024 7.26101C14.5024 5.73309 13.9334 4.26776 12.9204 3.18736C11.9076 2.10696 10.5338 1.5 9.10142 1.5C7.669 1.5 6.29525 2.10696 5.28237 3.18736C4.2695 4.26776 3.70047 5.73309 3.70047 7.26101C3.70047 13.9822 1 15.9025 1 15.9025H17.2028C17.2028 15.9025 14.5024 13.9822 14.5024 7.26101Z" stroke="#222222" stroke-width="2" stroke-linecap="round" stroke-linejoin="round"/>
<path d="M10.6587 18.603C10.5005 18.8758 10.2734 19.1023 10 19.2597C9.72671 19.4171 9.41688 19.5 9.10146 19.5C8.78605 19.5 8.47621 19.4171 8.20292 19.2597C7.92964 19.1023 7.70244 18.8758 7.54419 18.603" stroke="#222222" stroke-width="2" stroke-linecap="round" stroke-linejoin="round"/>
</svg>
