<svg width="24" height="25" viewBox="0 0 24 25" fill="none" xmlns="http://www.w3.org/2000/svg">
<mask id="mask0_187_508" style="mask-type:alpha" maskUnits="userSpaceOnUse" x="0" y="0" width="24" height="25">
<rect y="0.5" width="24" height="24" fill="#D9D9D9"/>
</mask>
<g mask="url(#mask0_187_508)">
<path d="M7 23.5C6.45 23.5 5.97917 23.3042 5.5875 22.9125C5.19583 22.5208 5 22.05 5 21.5V3.5C5 2.95 5.19583 2.47917 5.5875 2.0875C5.97917 1.69583 6.45 1.5 7 1.5H17C17.55 1.5 18.0208 1.69583 18.4125 2.0875C18.8042 2.47917 19 2.95 19 3.5V21.5C19 22.05 18.8042 22.5208 18.4125 22.9125C18.0208 23.3042 17.55 23.5 17 23.5H7ZM7 20.5V21.5H17V20.5H7ZM7 18.5H17V6.5H7V18.5ZM7 4.5H17V3.5H7V4.5Z" fill="#222222"/>
</g>
</svg>
