<svg width="14" height="23" viewBox="0 0 14 23" fill="none" xmlns="http://www.w3.org/2000/svg">
<path d="M2 22.5C1.45 22.5 0.979167 22.3042 0.5875 21.9125C0.195833 21.5208 0 21.05 0 20.5V2.5C0 1.95 0.195833 1.47917 0.5875 1.0875C0.979167 0.695833 1.45 0.5 2 0.5H12C12.55 0.5 13.0208 0.695833 13.4125 1.0875C13.8042 1.47917 14 1.95 14 2.5V20.5C14 21.05 13.8042 21.5208 13.4125 21.9125C13.0208 22.3042 12.55 22.5 12 22.5H2ZM2 19.5V20.5H12V19.5H2ZM2 17.5H12V5.5H2V17.5ZM2 3.5H12V2.5H2V3.5Z" fill="#222222"/>
</svg>
