<svg width="18" height="19" viewBox="0 0 18 19" fill="none" xmlns="http://www.w3.org/2000/svg">
<path fill-rule="evenodd" clip-rule="evenodd" d="M17.64 9.70449C17.64 9.06631 17.5827 8.45268 17.4764 7.86359H9V11.3449H13.8436C13.635 12.4699 13.0009 13.4231 12.0477 14.0613V16.3195H14.9564C16.6582 14.7527 17.64 12.4454 17.64 9.70449Z" fill="#4285F4"/>
<path fill-rule="evenodd" clip-rule="evenodd" d="M9.00019 18.4997C11.4302 18.4997 13.4675 17.6938 14.9565 16.3193L12.0479 14.0611C11.242 14.6011 10.2111 14.9202 9.00019 14.9202C6.6561 14.9202 4.672 13.337 3.96428 11.2097H0.957458V13.5416C2.43837 16.4829 5.482 18.4997 9.00019 18.4997Z" fill="#34A853"/>
<path fill-rule="evenodd" clip-rule="evenodd" d="M3.96409 11.2099C3.78409 10.6699 3.68182 10.0931 3.68182 9.49995C3.68182 8.90677 3.78409 8.32995 3.96409 7.78995V5.45813H0.957273C0.347727 6.67313 0 8.04768 0 9.49995C0 10.9522 0.347727 12.3268 0.957273 13.5418L3.96409 11.2099Z" fill="#FBBC05"/>
<path fill-rule="evenodd" clip-rule="evenodd" d="M9.00019 4.07955C10.3215 4.07955 11.5079 4.53364 12.4406 5.42545L15.022 2.84409C13.4634 1.39182 11.4261 0.5 9.00019 0.5C5.482 0.5 2.43837 2.51682 0.957458 5.45818L3.96428 7.79C4.672 5.66273 6.6561 4.07955 9.00019 4.07955Z" fill="#EA4335"/>
</svg>
