<svg width="245" height="73" viewBox="0 0 245 73" fill="none" xmlns="http://www.w3.org/2000/svg">
<path d="M50.974 35.958C51.442 35.958 51.802 36.174 52.054 36.606C52.342 37.038 52.486 37.632 52.486 38.388C52.486 39.792 52.144 40.908 51.46 41.736C49.732 43.824 47.986 45.444 46.222 46.596C44.458 47.712 42.37 48.27 39.958 48.27C37.618 48.27 35.62 47.64 33.964 46.38C32.344 45.12 30.796 42.96 29.32 39.9C28.132 37.452 27.196 35.652 26.512 34.5C25.828 33.312 25.144 32.466 24.46 31.962C23.812 31.458 23.002 31.152 22.03 31.044C21.886 31.8 21.472 34.176 20.788 38.172C20.5 39.972 20.32 41.07 20.248 41.466C19.888 43.662 19.168 45.354 18.088 46.542C17.008 47.694 15.37 48.27 13.174 48.27C10.762 48.27 8.62 47.568 6.748 46.164C4.912 44.724 3.49 42.744 2.482 40.224C1.474 37.668 0.97 34.77 0.97 31.53C0.97 25.482 2.014 20.262 4.102 15.87C6.226 11.478 9.178 8.13 12.958 5.826C16.774 3.486 21.166 2.316 26.134 2.316C29.59 2.316 32.488 2.838 34.828 3.882C37.168 4.926 38.896 6.366 40.012 8.202C41.164 10.038 41.74 12.108 41.74 14.412C41.74 16.428 41.254 18.408 40.282 20.352C39.346 22.26 37.924 23.952 36.016 25.428C34.108 26.904 31.786 28.002 29.05 28.722C30.778 29.19 32.11 29.946 33.046 30.99C33.982 32.034 34.918 33.564 35.854 35.58C36.862 37.74 37.852 39.324 38.824 40.332C39.832 41.34 40.984 41.844 42.28 41.844C43.432 41.844 44.53 41.466 45.574 40.71C46.618 39.918 47.932 38.586 49.516 36.714C49.948 36.21 50.434 35.958 50.974 35.958ZM14.578 30.99C13.354 30.99 12.508 30.702 12.04 30.126C11.608 29.55 11.392 28.902 11.392 28.182C11.392 27.318 11.662 26.634 12.202 26.13C12.778 25.626 13.426 25.374 14.146 25.374H15.496C16.072 21.846 16.612 18.804 17.116 16.248C17.584 13.908 19.096 12.738 21.652 12.738C23.704 12.738 24.73 13.656 24.73 15.492C24.73 15.888 24.712 16.194 24.676 16.41L23.056 25.374C25 25.266 26.764 24.798 28.348 23.97C29.968 23.142 31.246 21.99 32.182 20.514C33.154 19.038 33.64 17.364 33.64 15.492C33.64 13.224 32.866 11.442 31.318 10.146C29.77 8.85 27.502 8.202 24.514 8.202C20.986 8.202 17.89 9.084 15.226 10.848C12.598 12.576 10.546 15.168 9.07 18.624C7.594 22.044 6.856 26.22 6.856 31.152C6.856 33.456 7.09 35.436 7.558 37.092C8.026 38.748 8.602 39.99 9.286 40.818C9.97 41.646 10.618 42.06 11.23 42.06C11.698 42.06 12.076 41.826 12.364 41.358C12.688 40.89 12.94 40.134 13.12 39.09L14.578 30.99ZM53.6137 48.27C51.9937 48.27 50.6617 47.532 49.6177 46.056C48.6097 44.544 48.1057 42.672 48.1057 40.44C48.1057 37.74 48.2857 35.274 48.6457 33.042C49.0057 30.774 49.5997 28.38 50.4277 25.86C50.7877 24.78 51.2917 24.006 51.9397 23.538C52.5877 23.07 53.6137 22.836 55.0177 22.836C55.8097 22.836 56.3497 22.962 56.6377 23.214C56.9617 23.466 57.1237 23.844 57.1237 24.348C57.1237 24.636 56.9257 25.608 56.5297 27.264C56.1697 28.596 55.8817 29.802 55.6657 30.882C54.9457 34.662 54.5857 37.182 54.5857 38.442C54.5857 39.198 54.6757 39.738 54.8557 40.062C55.0357 40.35 55.3237 40.494 55.7197 40.494C56.2597 40.494 56.9257 39.954 57.7177 38.874C58.5457 37.794 59.4097 36.156 60.3097 33.96C61.2457 31.764 62.1457 29.064 63.0097 25.86C63.2977 24.78 63.7297 24.006 64.3057 23.538C64.9177 23.07 65.8177 22.836 67.0057 22.836C67.8337 22.836 68.4097 22.944 68.7337 23.16C69.0577 23.34 69.2197 23.7 69.2197 24.24C69.2197 25.14 68.7697 27.606 67.8697 31.638C66.8617 36.246 66.3577 39.09 66.3577 40.17C66.3577 40.854 66.5017 41.394 66.7897 41.79C67.0777 42.15 67.4557 42.33 67.9237 42.33C68.6437 42.33 69.4897 41.898 70.4617 41.034C71.4697 40.134 72.8017 38.694 74.4577 36.714C74.8897 36.21 75.3757 35.958 75.9157 35.958C76.3837 35.958 76.7437 36.174 76.9957 36.606C77.2837 37.038 77.4277 37.632 77.4277 38.388C77.4277 39.828 77.0857 40.944 76.4017 41.736C74.8537 43.644 73.1797 45.21 71.3797 46.434C69.6157 47.658 67.5997 48.27 65.3317 48.27C63.6037 48.27 62.3257 47.604 61.4977 46.272C60.7057 44.94 60.3097 43.068 60.3097 40.656C59.6977 43.104 58.7797 44.994 57.5557 46.326C56.3317 47.622 55.0177 48.27 53.6137 48.27ZM76.883 48.27C75.515 48.27 74.543 47.55 73.967 46.11C73.427 44.67 73.157 42.366 73.157 39.198C73.157 34.518 73.823 30.072 75.155 25.86C75.479 24.816 76.001 24.06 76.721 23.592C77.477 23.088 78.521 22.836 79.853 22.836C80.573 22.836 81.077 22.926 81.365 23.106C81.653 23.286 81.797 23.628 81.797 24.132C81.797 24.708 81.527 26.004 80.987 28.02C80.627 29.46 80.339 30.72 80.123 31.8C79.907 32.88 79.727 34.212 79.583 35.796C80.771 32.7 82.103 30.18 83.579 28.236C85.055 26.292 86.495 24.906 87.899 24.078C89.339 23.25 90.653 22.836 91.841 22.836C92.993 22.836 93.857 23.142 94.433 23.754C95.045 24.33 95.351 25.194 95.351 26.346C95.351 27.282 95.153 29.046 94.757 31.638C94.397 33.834 94.109 35.922 93.893 37.902C93.677 39.846 93.569 42.024 93.569 44.436C93.569 45.804 93.281 46.794 92.705 47.406C92.165 47.982 91.265 48.27 90.005 48.27C88.817 48.27 87.953 47.964 87.413 47.352C86.873 46.74 86.603 45.822 86.603 44.598C86.603 43.158 86.855 40.782 87.359 37.47C87.791 34.59 88.007 32.754 88.007 31.962C88.007 31.386 87.809 31.098 87.413 31.098C86.945 31.098 86.279 31.71 85.415 32.934C84.587 34.122 83.723 35.706 82.823 37.686C81.959 39.666 81.257 41.754 80.717 43.95C80.321 45.642 79.853 46.794 79.313 47.406C78.809 47.982 77.999 48.27 76.883 48.27ZM137.58 35.958C138.048 35.958 138.408 36.174 138.66 36.606C138.948 37.038 139.092 37.632 139.092 38.388C139.092 39.828 138.75 40.944 138.066 41.736C136.518 43.644 134.826 45.21 132.99 46.434C131.154 47.658 129.048 48.27 126.672 48.27C119.328 48.27 115.656 43.104 115.656 32.772C115.656 31.188 115.71 29.586 115.818 27.966H113.712C112.632 27.966 111.894 27.768 111.498 27.372C111.138 26.976 110.958 26.346 110.958 25.482C110.958 23.466 111.768 22.458 113.388 22.458H116.466C117.078 18.498 118.014 14.88 119.274 11.604C120.534 8.328 122.046 5.718 123.81 3.774C125.61 1.83 127.536 0.857999 129.588 0.857999C131.1 0.857999 132.288 1.524 133.152 2.856C134.016 4.188 134.448 5.862 134.448 7.878C134.448 13.458 132.108 18.318 127.428 22.458H133.476C134.052 22.458 134.466 22.584 134.718 22.836C134.97 23.088 135.096 23.556 135.096 24.24C135.096 26.724 133.062 27.966 128.994 27.966H122.406C122.334 29.766 122.298 31.17 122.298 32.178C122.298 35.922 122.73 38.55 123.594 40.062C124.494 41.574 125.898 42.33 127.806 42.33C129.354 42.33 130.722 41.862 131.91 40.926C133.098 39.99 134.502 38.586 136.122 36.714C136.554 36.21 137.04 35.958 137.58 35.958ZM128.13 6.042C127.59 6.042 126.978 6.726 126.294 8.094C125.646 9.426 125.016 11.298 124.404 13.71C123.828 16.086 123.342 18.732 122.946 21.648C125.07 19.812 126.654 17.76 127.698 15.492C128.778 13.188 129.318 11.1 129.318 9.228C129.318 7.104 128.922 6.042 128.13 6.042ZM143.822 48.27C141.698 48.27 139.88 47.748 138.368 46.704C136.892 45.624 135.776 44.22 135.02 42.492C134.264 40.764 133.886 38.91 133.886 36.93C133.886 34.194 134.39 31.764 135.398 29.64C136.442 27.48 137.846 25.806 139.61 24.618C141.374 23.394 143.354 22.782 145.55 22.782C147.674 22.782 149.492 23.322 151.004 24.402C152.516 25.446 153.65 26.832 154.406 28.56C155.162 30.288 155.54 32.142 155.54 34.122C155.54 36.858 155.018 39.306 153.974 41.466C152.93 43.59 151.508 45.264 149.708 46.488C147.944 47.676 145.982 48.27 143.822 48.27ZM144.416 42.438C145.64 42.438 146.666 41.772 147.494 40.44C148.358 39.108 148.79 37.164 148.79 34.608C148.79 32.628 148.43 31.134 147.71 30.126C146.99 29.118 146.126 28.614 145.118 28.614C143.822 28.614 142.742 29.28 141.878 30.612C141.05 31.908 140.636 33.852 140.636 36.444C140.636 38.496 140.996 40.008 141.716 40.98C142.436 41.952 143.336 42.438 144.416 42.438ZM201.103 36.066C201.571 36.066 201.931 36.3 202.183 36.768C202.471 37.2 202.615 37.758 202.615 38.442C202.615 39.27 202.489 39.918 202.237 40.386C201.985 40.854 201.589 41.268 201.049 41.628L190.681 48.594C189.313 56.046 187.513 61.896 185.281 66.144C183.085 70.428 180.277 72.57 176.857 72.57C175.021 72.57 173.527 71.994 172.375 70.842C171.223 69.726 170.647 68.25 170.647 66.414C170.647 64.722 171.025 62.994 171.781 61.23C172.573 59.466 174.013 57.432 176.101 55.128C178.225 52.86 181.213 50.25 185.065 47.298L185.227 46.056C185.479 44.724 185.767 42.816 186.091 40.332C185.371 42.924 184.363 44.904 183.067 46.272C181.771 47.604 180.403 48.27 178.963 48.27C177.343 48.27 176.011 47.532 174.967 46.056C173.959 44.544 173.455 42.672 173.455 40.44C173.455 37.74 173.635 35.274 173.995 33.042C174.355 30.774 174.949 28.38 175.777 25.86C176.137 24.78 176.641 24.006 177.289 23.538C177.937 23.07 178.963 22.836 180.367 22.836C181.159 22.836 181.699 22.962 181.987 23.214C182.311 23.466 182.473 23.844 182.473 24.348C182.473 24.636 182.275 25.608 181.879 27.264C181.519 28.596 181.231 29.802 181.015 30.882C180.727 32.358 180.475 33.78 180.259 35.148C180.043 36.48 179.935 37.578 179.935 38.442C179.935 39.81 180.313 40.494 181.069 40.494C181.609 40.494 182.275 39.954 183.067 38.874C183.895 37.794 184.759 36.156 185.659 33.96C186.595 31.764 187.495 29.064 188.359 25.86C188.647 24.78 189.079 24.006 189.655 23.538C190.267 23.07 191.167 22.836 192.355 22.836C193.183 22.836 193.759 22.944 194.083 23.16C194.407 23.376 194.569 23.736 194.569 24.24C194.569 25.14 194.101 28.236 193.165 33.528L191.761 42.222C194.533 40.134 197.233 38.226 199.861 36.498C200.329 36.21 200.743 36.066 201.103 36.066ZM177.451 67.332C178.351 67.332 179.359 66.288 180.475 64.2C181.591 62.112 182.707 58.638 183.823 53.778C181.051 56.118 179.035 58.242 177.775 60.15C176.551 62.094 175.939 63.786 175.939 65.226C175.939 65.838 176.047 66.342 176.263 66.738C176.515 67.134 176.911 67.332 177.451 67.332ZM226.835 31.422C227.303 31.422 227.663 31.656 227.915 32.124C228.167 32.592 228.293 33.186 228.293 33.906C228.293 35.634 227.771 36.66 226.727 36.984C224.567 37.74 222.191 38.172 219.599 38.28C218.915 41.304 217.565 43.734 215.549 45.57C213.533 47.37 211.247 48.27 208.691 48.27C206.531 48.27 204.677 47.748 203.129 46.704C201.617 45.66 200.465 44.274 199.673 42.546C198.881 40.818 198.485 38.946 198.485 36.93C198.485 34.194 199.007 31.764 200.051 29.64C201.095 27.48 202.535 25.806 204.371 24.618C206.207 23.394 208.241 22.782 210.473 22.782C213.209 22.782 215.405 23.736 217.061 25.644C218.753 27.516 219.743 29.838 220.031 32.61C221.723 32.502 223.739 32.142 226.079 31.53C226.367 31.458 226.619 31.422 226.835 31.422ZM209.123 42.546C210.275 42.546 211.265 42.078 212.093 41.142C212.957 40.206 213.533 38.856 213.821 37.092C212.705 36.336 211.841 35.346 211.229 34.122C210.653 32.898 210.365 31.602 210.365 30.234C210.365 29.658 210.419 29.082 210.527 28.506H210.257C208.817 28.506 207.611 29.208 206.639 30.612C205.703 31.98 205.235 33.924 205.235 36.444C205.235 38.424 205.613 39.936 206.369 40.98C207.161 42.024 208.079 42.546 209.123 42.546ZM229.274 48.27C227.582 48.27 226.214 47.586 225.17 46.218C224.162 44.814 223.658 42.888 223.658 40.44C223.658 37.74 223.838 35.274 224.198 33.042C224.558 30.774 225.152 28.38 225.98 25.86C226.34 24.78 226.844 24.006 227.492 23.538C228.14 23.07 229.166 22.836 230.57 22.836C231.362 22.836 231.902 22.962 232.19 23.214C232.514 23.466 232.676 23.844 232.676 24.348C232.676 24.636 232.478 25.608 232.082 27.264C231.722 28.596 231.434 29.802 231.218 30.882C230.498 34.662 230.138 37.182 230.138 38.442C230.138 39.198 230.228 39.738 230.408 40.062C230.588 40.35 230.876 40.494 231.272 40.494C231.812 40.494 232.496 39.954 233.324 38.874C234.152 37.758 235.016 36.102 235.916 33.906C236.852 31.674 237.734 28.992 238.562 25.86C238.85 24.78 239.282 24.006 239.858 23.538C240.47 23.07 241.37 22.836 242.558 22.836C243.35 22.836 243.908 23.052 244.232 23.484C244.592 23.88 244.772 24.492 244.772 25.32C244.772 26.22 244.7 27.228 244.556 28.344C244.412 29.424 244.25 30.54 244.07 31.692C243.71 33.996 243.422 36.102 243.206 38.01C242.99 39.882 242.882 42.024 242.882 44.436C242.882 45.804 242.594 46.794 242.018 47.406C241.478 47.982 240.578 48.27 239.318 48.27C237.986 48.27 237.05 47.928 236.51 47.244C236.006 46.524 235.754 45.156 235.754 43.14C235.754 42.744 235.79 41.862 235.862 40.494C235.25 43.014 234.332 44.94 233.108 46.272C231.92 47.604 230.642 48.27 229.274 48.27Z" fill="white"/>
</svg>
