<svg width="20" height="19" viewBox="0 0 20 19" fill="none" xmlns="http://www.w3.org/2000/svg">
<path d="M10 15C11.25 15 12.3125 14.5625 13.1875 13.6875C14.0625 12.8125 14.5 11.75 14.5 10.5C14.5 9.25 14.0625 8.1875 13.1875 7.3125C12.3125 6.4375 11.25 6 10 6C8.75 6 7.6875 6.4375 6.8125 7.3125C5.9375 8.1875 5.5 9.25 5.5 10.5C5.5 11.75 5.9375 12.8125 6.8125 13.6875C7.6875 14.5625 8.75 15 10 15ZM10 13C9.3 13 8.70833 12.7583 8.225 12.275C7.74167 11.7917 7.5 11.2 7.5 10.5C7.5 9.8 7.74167 9.20833 8.225 8.725C8.70833 8.24167 9.3 8 10 8C10.7 8 11.2917 8.24167 11.775 8.725C12.2583 9.20833 12.5 9.8 12.5 10.5C12.5 11.2 12.2583 11.7917 11.775 12.275C11.2917 12.7583 10.7 13 10 13ZM2 18.5C1.45 18.5 0.979167 18.3042 0.5875 17.9125C0.195833 17.5208 0 17.05 0 16.5V4.5C0 3.95 0.195833 3.47917 0.5875 3.0875C0.979167 2.69583 1.45 2.5 2 2.5H5.15L7 0.5H13L14.85 2.5H18C18.55 2.5 19.0208 2.69583 19.4125 3.0875C19.8042 3.47917 20 3.95 20 4.5V16.5C20 17.05 19.8042 17.5208 19.4125 17.9125C19.0208 18.3042 18.55 18.5 18 18.5H2ZM18 16.5V4.5H13.95L12.125 2.5H7.875L6.05 4.5H2V16.5H18Z" fill="#222222"/>
</svg>
